<?xml version="1.0" encoding="UTF-8"?>
<svg version="1.1" xmlns="http://www.w3.org/2000/svg" width="512" height="512">
<path d="M0 0 C0.68725159 -0.00635468 1.37450317 -0.01270935 2.08258057 -0.01925659 C34.52672109 -0.20585087 63.64044268 12.6146017 86.80908203 35.04785156 C88.21043945 36.39934706 89.63426312 37.7274253 91.05859375 39.0546875 C102.60308822 50.09155172 111.71376184 63.38846343 119.25 77.4375 C119.25 78.0975 119.25 78.7575 119.25 79.4375 C119.91 79.4375 120.57 79.4375 121.25 79.4375 C121.57291016 78.22126953 121.57291016 78.22126953 121.90234375 76.98046875 C123.6270279 72.44629912 126.09241358 68.74602058 128.8125 64.75 C129.35551758 63.94836426 129.89853516 63.14672852 130.45800781 62.32080078 C142.27939366 45.04902376 156.56064366 29.74777648 174.25 18.4375 C175.24386719 17.79425781 176.23773438 17.15101562 177.26171875 16.48828125 C204.13396221 -0.05124376 239.815426 -4.45553663 270.47290039 2.53540039 C272.75095844 3.11734707 274.99928981 3.75769963 277.25 4.4375 C278.03439453 4.67355957 278.81878906 4.90961914 279.62695312 5.15283203 C315.42466882 16.35587018 342.70730224 41.49468281 360.22265625 74.25683594 C365.55438272 84.52431337 369.28062275 95.27238012 372.25 106.4375 C372.46317871 107.22850098 372.67635742 108.01950195 372.89599609 108.83447266 C376.15327466 121.55103281 376.63814739 134.19639747 376.6875 147.25 C376.69376404 148.02510925 376.70002808 148.80021851 376.70648193 149.59881592 C376.91112336 189.64173627 359.78091369 227.42452526 335.25 258.4375 C334.76660156 259.05093262 334.28320312 259.66436523 333.78515625 260.29638672 C326.7658256 269.17338935 319.4587864 277.67216952 311.69091797 285.89941406 C309.78975124 287.92878553 307.92467897 289.98966215 306.05834961 292.05102539 C298.51818419 300.36467884 290.75706051 308.40494634 282.2109375 315.6953125 C279.96368115 317.6918789 277.86105073 319.79762946 275.75 321.9375 C272.41879193 325.30850065 268.99888372 328.4826403 265.40234375 331.56640625 C262.86947838 333.76829829 260.40667478 336.03945826 257.9375 338.3125 C254.31476095 341.62086914 250.63307109 344.79762358 246.8125 347.875 C242.81775746 351.09693317 239.00447891 354.44407611 235.25 357.9375 C230.6175162 362.24746438 225.82877767 366.28811168 220.8984375 370.2578125 C218.27724881 372.41507399 215.75845719 374.65061 213.25 376.9375 C209.93010514 379.96032421 206.55235888 382.86262161 203.0625 385.6875 C196.62288007 390.90268515 190.39544597 396.35081752 184.14648438 401.79101562 C181.17144811 404.37387409 178.1805594 406.93806914 175.1875 409.5 C174.61410889 409.99089111 174.04071777 410.48178223 173.44995117 410.98754883 C172.29469482 411.97635203 171.13934024 412.96504049 169.98388672 413.95361328 C167.65538559 415.94638009 165.32847724 417.9410014 163.00170898 419.93579102 C161.83599385 420.93513789 160.67014145 421.93432468 159.50415039 422.93334961 C156.56046576 425.45562602 153.61851369 427.97987626 150.6796875 430.5078125 C144.97798904 435.4098064 139.26365605 440.29589592 133.5 445.125 C132.53578125 445.93324219 131.5715625 446.74148438 130.578125 447.57421875 C126.28993013 451.00621364 122.73443581 450.90011233 117.34375 450.8359375 C112.36186372 450.19433093 109.78851974 447.82945383 106.25 444.4375 C104.64692939 442.9987778 103.04269096 441.56135612 101.4375 440.125 C100.59574219 439.35542969 99.75398437 438.58585937 98.88671875 437.79296875 C96.2346117 435.42375312 93.51567362 433.17266359 90.75 430.9375 C86.28723787 427.32717558 82.02280467 423.55322071 77.78125 419.6875 C75.1615519 417.35887947 72.4748469 415.14187053 69.75 412.9375 C66.1552235 410.0293662 62.66739372 407.05208668 59.25 403.9375 C55.93010514 400.91467579 52.55235888 398.01237839 49.0625 395.1875 C42.62288007 389.97231485 36.39544597 384.52418248 30.14648438 379.08398438 C27.17144726 376.50112517 24.18047177 373.93703438 21.1875 371.375 C20.33176392 370.64192627 20.33176392 370.64192627 19.45874023 369.89404297 C16.5129724 367.37147698 13.5643238 364.85233037 10.61328125 362.3359375 C4.49690277 357.11518039 -1.56681206 351.85286757 -7.5234375 346.44921875 C-9.58104391 344.59015331 -11.65846763 342.75821642 -13.75 340.9375 C-17.59483954 337.58677639 -21.38746316 334.18045889 -25.171875 330.76171875 C-26.88545417 329.21690117 -28.60419243 327.67778643 -30.328125 326.14453125 C-34.98134225 321.99802938 -39.46813002 317.75765021 -43.83984375 313.31640625 C-45.64644496 311.53936089 -47.50697156 309.89034462 -49.4375 308.25 C-57.49369298 301.30830012 -65.08621598 293.61472302 -71.9609375 285.50390625 C-73.78697518 283.39479286 -75.68143679 281.35890234 -77.58911133 279.32373047 C-92.44810445 263.40797213 -105.57405522 245.56287403 -115.75927734 226.30908203 C-116.69551496 224.54042813 -117.65374898 222.78346884 -118.61328125 221.02734375 C-128.7512581 201.80789761 -135.75285362 179.25540718 -135.98828125 157.43359375 C-135.99816574 156.68180847 -136.00805023 155.93002319 -136.01823425 155.15545654 C-136.19097699 138.59304079 -136.22201904 122.51876041 -131.75 106.4375 C-131.48155273 105.47102539 -131.21310547 104.50455078 -130.93652344 103.50878906 C-119.99615066 65.50220059 -96.97638502 34.27259971 -62.25830078 14.78442383 C-42.58911748 4.17742258 -22.16884755 0.10453765 0 0 Z " fill="#C23E3E" transform="translate(135.75,30.5625)"/>
</svg>
